<svg width="136" height="18" viewBox="0 0 136 18" fill="none" xmlns="http://www.w3.org/2000/svg">
<path d="M2.15 14.9C2.38333 14.95 2.63333 14.9917 2.9 15.025C3.13333 15.0583 3.375 15.0917 3.625 15.125C3.89167 15.1417 4.15833 15.15 4.425 15.15C4.89167 15.15 5.34167 15.1 5.775 15C6.225 14.8833 6.625 14.7 6.975 14.45C7.325 14.2 7.6 13.8833 7.8 13.5C8.01667 13.1 8.125 12.6167 8.125 12.05C8.125 11.5667 8 11.1083 7.75 10.675C7.51667 10.2417 7.20833 9.825 6.825 9.425C6.45833 9.025 6.05833 8.64167 5.625 8.275C5.20833 7.90833 4.80833 7.54167 4.425 7.175C4.05833 6.79167 3.75 6.41667 3.5 6.05C3.26667 5.66667 3.15 5.275 3.15 4.875C3.15 4.275 3.34167 3.81667 3.725 3.5C4.10833 3.16667 4.725 3 5.575 3C5.70833 3 5.84167 3.00833 5.975 3.025C6.125 3.025 6.26667 3.03333 6.4 3.05C6.53333 3.06667 6.66667 3.075 6.8 3.075V2.425C6.68333 2.425 6.55833 2.41667 6.425 2.4C6.30833 2.38333 6.175 2.375 6.025 2.375C5.89167 2.35833 5.75 2.35 5.6 2.35C4.7 2.35 3.95833 2.55833 3.375 2.975C2.79167 3.375 2.5 4.00833 2.5 4.875C2.5 5.34167 2.61667 5.78333 2.85 6.2C3.1 6.6 3.40833 7 3.775 7.4C4.15833 7.78333 4.55833 8.15833 4.975 8.525C5.40833 8.89167 5.80833 9.26667 6.175 9.65C6.55833 10.0167 6.86667 10.4 7.1 10.8C7.35 11.2 7.475 11.6167 7.475 12.05C7.475 12.85 7.2 13.4583 6.65 13.875C6.11667 14.2917 5.375 14.5 4.425 14.5C3.85833 14.5 3.34167 14.4583 2.875 14.375C2.625 14.3417 2.38333 14.3 2.15 14.25V14.9ZM0.05 11.9C0.416667 12.0167 0.8 12.1083 1.2 12.175C1.53333 12.2583 1.90833 12.325 2.325 12.375C2.75833 12.425 3.19167 12.45 3.625 12.45C4.39167 12.45 4.775 12.1667 4.775 11.6C4.775 11.3833 4.65833 11.1667 4.425 10.95C4.19167 10.7167 3.89167 10.4667 3.525 10.2C3.175 9.91667 2.79167 9.60833 2.375 9.275C1.975 8.94167 1.59167 8.55833 1.225 8.125C0.875 7.69167 0.583333 7.20833 0.35 6.675C0.116667 6.125 1.49012e-08 5.5 1.49012e-08 4.8C1.49012e-08 4.01667 0.141667 3.325 0.425 2.725C0.708333 2.125 1.1 1.625 1.6 1.225C2.1 0.825 2.68333 0.525 3.35 0.325C4.03333 0.108333 4.75833 5.96046e-08 5.525 5.96046e-08C5.925 5.96046e-08 6.325 0.0250002 6.725 0.0750006C7.125 0.108333 7.48333 0.141666 7.8 0.174999C8.16667 0.225 8.525 0.275 8.875 0.325V5C8.74167 4.98333 8.59167 4.96667 8.425 4.95C8.29167 4.93333 8.14167 4.91667 7.975 4.9C7.80833 4.88333 7.63333 4.875 7.45 4.875C7.35 4.875 7.225 4.88333 7.075 4.9C6.925 4.9 6.78333 4.91667 6.65 4.95C6.51667 4.98333 6.4 5.04167 6.3 5.125C6.2 5.20833 6.15 5.325 6.15 5.475C6.15 5.60833 6.25833 5.775 6.475 5.975C6.70833 6.175 6.98333 6.40833 7.3 6.675C7.63333 6.94167 7.99167 7.25 8.375 7.6C8.775 7.95 9.13333 8.35 9.45 8.8C9.78333 9.25 10.0583 9.75833 10.275 10.325C10.5083 10.8917 10.625 11.525 10.625 12.225C10.625 12.9583 10.5083 13.65 10.275 14.3C10.0417 14.9333 9.675 15.4917 9.175 15.975C8.69167 16.4417 8.06667 16.8083 7.3 17.075C6.53333 17.3583 5.625 17.5 4.575 17.5C3.94167 17.5 3.35 17.4667 2.8 17.4C2.26667 17.35 1.79167 17.2833 1.375 17.2C0.891667 17.1167 0.45 17.0167 0.05 16.9V11.9ZM11.7549 0.399999H17.0799V6.075H20.0549V0.399999H25.4049V17.075H20.0549V10.9H17.0799V17.075H11.7549V0.399999ZM14.9049 15.075V8.75H22.2549V15.075H22.9049V2.4H22.2549V8.15H14.9049V2.4H14.2549V15.075H14.9049ZM26.7852 8.75C26.7852 7.55 27.0102 6.41667 27.4602 5.35C27.9268 4.28333 28.5518 3.35833 29.3352 2.575C30.1352 1.775 31.0685 1.15 32.1352 0.7C33.2018 0.233333 34.3352 5.96046e-08 35.5352 5.96046e-08C36.7352 5.96046e-08 37.8685 0.233333 38.9352 0.7C40.0018 1.15 40.9268 1.775 41.7102 2.575C42.5102 3.35833 43.1352 4.28333 43.5852 5.35C44.0518 6.41667 44.2852 7.55 44.2852 8.75C44.2852 9.95 44.0518 11.0833 43.5852 12.15C43.1352 13.2167 42.5102 14.15 41.7102 14.95C40.9268 15.7333 40.0018 16.3583 38.9352 16.825C37.8685 17.275 36.7352 17.5 35.5352 17.5C34.3352 17.5 33.2018 17.275 32.1352 16.825C31.0685 16.3583 30.1352 15.7333 29.3352 14.95C28.5518 14.15 27.9268 13.2167 27.4602 12.15C27.0102 11.0833 26.7852 9.95 26.7852 8.75ZM29.1352 8.75C29.1352 9.63333 29.3018 10.4667 29.6352 11.25C29.9685 12.0167 30.4268 12.6917 31.0102 13.275C31.5935 13.8583 32.2685 14.3167 33.0352 14.65C33.8185 14.9833 34.6518 15.15 35.5352 15.15C36.4185 15.15 37.2435 14.9833 38.0102 14.65C38.7935 14.3167 39.4768 13.8583 40.0602 13.275C40.6435 12.6917 41.1018 12.0167 41.4352 11.25C41.7685 10.4667 41.9352 9.63333 41.9352 8.75C41.9352 7.86667 41.7685 7.04167 41.4352 6.275C41.1018 5.49167 40.6435 4.80833 40.0602 4.225C39.4768 3.64167 38.7935 3.18333 38.0102 2.85C37.2435 2.51667 36.4185 2.35 35.5352 2.35C34.6518 2.35 33.8185 2.51667 33.0352 2.85C32.2685 3.18333 31.5935 3.64167 31.0102 4.225C30.4268 4.80833 29.9685 5.49167 29.6352 6.275C29.3018 7.04167 29.1352 7.86667 29.1352 8.75ZM32.0352 8.75C32.0352 9.23333 32.1268 9.69167 32.3102 10.125C32.4935 10.5417 32.7435 10.9083 33.0602 11.225C33.3768 11.5417 33.7435 11.7917 34.1602 11.975C34.5935 12.1583 35.0518 12.25 35.5352 12.25C36.0185 12.25 36.4685 12.1583 36.8852 11.975C37.3185 11.7917 37.6935 11.5417 38.0102 11.225C38.3268 10.9083 38.5768 10.5417 38.7602 10.125C38.9435 9.69167 39.0352 9.23333 39.0352 8.75C39.0352 8.26667 38.9435 7.81667 38.7602 7.4C38.5768 6.96667 38.3268 6.59167 38.0102 6.275C37.6935 5.95833 37.3185 5.70833 36.8852 5.525C36.4685 5.34167 36.0185 5.25 35.5352 5.25C35.0518 5.25 34.5935 5.34167 34.1602 5.525C33.7435 5.70833 33.3768 5.95833 33.0602 6.275C32.7435 6.59167 32.4935 6.96667 32.3102 7.4C32.1268 7.81667 32.0352 8.26667 32.0352 8.75ZM35.5352 14.5C34.7352 14.5 33.9852 14.35 33.2852 14.05C32.6018 13.75 31.9935 13.3417 31.4602 12.825C30.9435 12.2917 30.5352 11.6833 30.2352 11C29.9352 10.3 29.7852 9.55 29.7852 8.75C29.7852 7.95 29.9352 7.20833 30.2352 6.525C30.5352 5.825 30.9435 5.21667 31.4602 4.7C31.9935 4.16667 32.6018 3.75 33.2852 3.45C33.9852 3.15 34.7352 3 35.5352 3C36.3352 3 37.0768 3.15 37.7602 3.45C38.4602 3.75 39.0685 4.16667 39.5852 4.7C40.1185 5.21667 40.5352 5.825 40.8352 6.525C41.1352 7.20833 41.2852 7.95 41.2852 8.75C41.2852 9.55 41.1352 10.3 40.8352 11C40.5352 11.6833 40.1185 12.2917 39.5852 12.825C39.0685 13.3417 38.4602 13.75 37.7602 14.05C37.0768 14.35 36.3352 14.5 35.5352 14.5ZM58.641 6.75C58.641 7.9 58.441 8.88333 58.041 9.7C57.641 10.5 57.091 11.15 56.391 11.65C55.7077 12.15 54.8993 12.5167 53.966 12.75C53.0493 12.9833 52.0577 13.1 50.991 13.1V17.075H45.666V0.399999H50.991C52.0577 0.399999 53.0493 0.516666 53.966 0.749999C54.8993 0.983333 55.7077 1.35 56.391 1.85C57.091 2.35 57.641 3.00833 58.041 3.825C58.441 4.625 58.641 5.6 58.641 6.75ZM56.216 6.75C56.216 6 56.0827 5.35 55.816 4.8C55.566 4.25 55.2077 3.8 54.741 3.45C54.2743 3.1 53.716 2.84167 53.066 2.675C52.4327 2.49167 51.741 2.4 50.991 2.4H48.166V15.075H48.816V11.1H50.991C51.741 11.1 52.4327 11.0167 53.066 10.85C53.716 10.6667 54.2743 10.4 54.741 10.05C55.2077 9.7 55.566 9.25 55.816 8.7C56.0827 8.15 56.216 7.5 56.216 6.75ZM55.516 6.75C55.516 7.46667 55.391 8.06667 55.141 8.55C54.891 9.03333 54.5577 9.41667 54.141 9.7C53.7243 9.98333 53.241 10.1917 52.691 10.325C52.1577 10.4417 51.591 10.5 50.991 10.5H48.816V3H50.991C51.591 3 52.1577 3.06667 52.691 3.2C53.241 3.31667 53.7243 3.51667 54.141 3.8C54.5577 4.08333 54.891 4.46667 55.141 4.95C55.391 5.43333 55.516 6.03333 55.516 6.75ZM50.991 8.6H51.216C51.916 8.6 52.416 8.44167 52.716 8.125C53.0327 7.79167 53.191 7.33333 53.191 6.75C53.191 6.16667 53.0327 5.71667 52.716 5.4C52.416 5.06667 51.916 4.9 51.216 4.9H50.991V8.6Z" fill="#007AFF"/>
<path d="M70.5244 6.075C70.2244 5.80833 69.8494 5.60833 69.3994 5.475C68.9494 5.325 68.5077 5.25 68.0744 5.25C67.5911 5.25 67.1494 5.34167 66.7494 5.525C66.3494 5.69167 65.9994 5.93333 65.6994 6.25C65.4161 6.55 65.1911 6.91667 65.0244 7.35C64.8577 7.78333 64.7744 8.25 64.7744 8.75C64.7744 9.25 64.8661 9.71667 65.0494 10.15C65.2327 10.5833 65.4827 10.9583 65.7994 11.275C66.1161 11.575 66.4827 11.8167 66.8994 12C67.3327 12.1667 67.7911 12.25 68.2744 12.25C68.8411 12.25 69.3577 12.1333 69.8244 11.9C70.2911 11.65 70.6911 11.3167 71.0244 10.9H69.5244V7.4H75.9494V12.95C75.5661 13.6333 75.1077 14.2583 74.5744 14.825C74.0411 15.375 73.4411 15.85 72.7744 16.25C72.1244 16.65 71.4161 16.9583 70.6494 17.175C69.8827 17.3917 69.0911 17.5 68.2744 17.5C67.0744 17.5 65.9411 17.275 64.8744 16.825C63.8077 16.375 62.8744 15.7583 62.0744 14.975C61.2911 14.1917 60.6661 13.2667 60.1994 12.2C59.7494 11.1333 59.5244 9.98333 59.5244 8.75C59.5244 7.55 59.7411 6.41667 60.1744 5.35C60.6077 4.28333 61.1994 3.35833 61.9494 2.575C62.7161 1.775 63.6161 1.15 64.6494 0.7C65.6994 0.233333 66.8244 5.96046e-08 68.0244 5.96046e-08C68.9577 5.96046e-08 69.7661 0.0916665 70.4494 0.274999C71.1327 0.458333 71.7077 0.666667 72.1744 0.9C72.7244 1.16667 73.1827 1.45833 73.5494 1.775L70.5244 6.075ZM70.7744 2.85C70.5577 2.75 70.3161 2.66667 70.0494 2.6C69.8161 2.53333 69.5411 2.475 69.2244 2.425C68.9077 2.375 68.5577 2.35 68.1744 2.35C67.2911 2.35 66.4661 2.50833 65.6994 2.825C64.9327 3.14167 64.2661 3.58333 63.6994 4.15C63.1327 4.7 62.6827 5.36667 62.3494 6.15C62.0327 6.93333 61.8744 7.8 61.8744 8.75C61.8744 9.7 62.0411 10.5667 62.3744 11.35C62.7077 12.1333 63.1661 12.8083 63.7494 13.375C64.3327 13.925 65.0077 14.3583 65.7744 14.675C66.5577 14.9917 67.3911 15.15 68.2744 15.15C69.4244 15.15 70.4661 14.8833 71.3994 14.35C72.3327 13.8 73.0911 13.075 73.6744 12.175V8.9H71.0244V9.5H73.0244V12C72.5077 12.7667 71.8327 13.375 70.9994 13.825C70.1827 14.275 69.2744 14.5 68.2744 14.5C67.4744 14.5 66.7244 14.3667 66.0244 14.1C65.3411 13.8167 64.7327 13.425 64.1994 12.925C63.6827 12.4083 63.2744 11.8 62.9744 11.1C62.6744 10.3833 62.5244 9.6 62.5244 8.75C62.5244 7.9 62.6661 7.125 62.9494 6.425C63.2494 5.70833 63.6494 5.1 64.1494 4.6C64.6661 4.08333 65.2661 3.69167 65.9494 3.425C66.6327 3.14167 67.3744 3 68.1744 3C68.4744 3 68.7577 3.025 69.0244 3.075C69.2911 3.125 69.5244 3.175 69.7244 3.225C69.9577 3.29167 70.1744 3.35833 70.3744 3.425L70.7744 2.85ZM82.5311 11.275C83.1811 11.275 83.8144 11.2083 84.4311 11.075L86.8061 15.075H87.5811L85.0811 10.875C85.9811 10.5583 86.6977 10.075 87.2311 9.425C87.7644 8.75833 88.0311 7.9 88.0311 6.85C88.0311 6.11667 87.8894 5.475 87.6061 4.925C87.3227 4.375 86.9311 3.91667 86.4311 3.55C85.9477 3.16667 85.3727 2.88333 84.7061 2.7C84.0394 2.5 83.3144 2.4 82.5311 2.4H79.8311V15.075H80.4811V11.275H82.5311ZM80.4811 10.675V3H82.5311C84.0477 3 85.2311 3.33333 86.0811 4C86.9477 4.66667 87.3811 5.61667 87.3811 6.85C87.3811 8.08333 86.9477 9.03333 86.0811 9.7C85.2311 10.35 84.0477 10.675 82.5311 10.675H80.4811ZM77.3311 0.399999H83.0811C84.1477 0.399999 85.1311 0.541666 86.0311 0.825C86.9477 1.10833 87.7394 1.525 88.4061 2.075C89.0727 2.625 89.5894 3.30833 89.9561 4.125C90.3394 4.925 90.5311 5.85 90.5311 6.9C90.5311 7.73333 90.4144 8.44167 90.1811 9.025C89.9477 9.60833 89.6894 10.0917 89.4061 10.475C89.0727 10.9083 88.6977 11.275 88.2811 11.575L91.4061 17.075H85.1561L82.6561 12.85V17.075H77.3311V0.399999ZM82.6561 8.6H82.9311C83.5644 8.6 84.0977 8.45833 84.5311 8.175C84.9811 7.89167 85.2061 7.41667 85.2061 6.75C85.2061 6.08333 84.9811 5.60833 84.5311 5.325C84.0977 5.04167 83.5644 4.9 82.9311 4.9H82.6561V8.6ZM96.8563 0.399999H100.856L107.181 17.075H101.931L101.381 15.575H96.3313L95.7813 17.075H90.5312L96.8563 0.399999ZM99.9813 11.9L98.8563 8.975L97.7313 11.9H99.9813ZM94.2563 15.075L94.7313 13.825H102.981L103.456 15.075H104.156L99.3313 2.4H98.3812L93.5563 15.075H94.2563ZM98.8563 3L102.756 13.225H94.9563L98.8563 3ZM120.531 6.75C120.531 7.9 120.331 8.88333 119.931 9.7C119.531 10.5 118.981 11.15 118.281 11.65C117.597 12.15 116.789 12.5167 115.856 12.75C114.939 12.9833 113.947 13.1 112.881 13.1V17.075H107.556V0.399999H112.881C113.947 0.399999 114.939 0.516666 115.856 0.749999C116.789 0.983333 117.597 1.35 118.281 1.85C118.981 2.35 119.531 3.00833 119.931 3.825C120.331 4.625 120.531 5.6 120.531 6.75ZM118.106 6.75C118.106 6 117.972 5.35 117.706 4.8C117.456 4.25 117.097 3.8 116.631 3.45C116.164 3.1 115.606 2.84167 114.956 2.675C114.322 2.49167 113.631 2.4 112.881 2.4H110.056V15.075H110.706V11.1H112.881C113.631 11.1 114.322 11.0167 114.956 10.85C115.606 10.6667 116.164 10.4 116.631 10.05C117.097 9.7 117.456 9.25 117.706 8.7C117.972 8.15 118.106 7.5 118.106 6.75ZM117.406 6.75C117.406 7.46667 117.281 8.06667 117.031 8.55C116.781 9.03333 116.447 9.41667 116.031 9.7C115.614 9.98333 115.131 10.1917 114.581 10.325C114.047 10.4417 113.481 10.5 112.881 10.5H110.706V3H112.881C113.481 3 114.047 3.06667 114.581 3.2C115.131 3.31667 115.614 3.51667 116.031 3.8C116.447 4.08333 116.781 4.46667 117.031 4.95C117.281 5.43333 117.406 6.03333 117.406 6.75ZM112.881 8.6H113.106C113.806 8.6 114.306 8.44167 114.606 8.125C114.922 7.79167 115.081 7.33333 115.081 6.75C115.081 6.16667 114.922 5.71667 114.606 5.4C114.306 5.06667 113.806 4.9 113.106 4.9H112.881V8.6ZM121.789 0.399999H127.114V6.075H130.089V0.399999H135.439V17.075H130.089V10.9H127.114V17.075H121.789V0.399999ZM124.939 15.075V8.75H132.289V15.075H132.939V2.4H132.289V8.15H124.939V2.4H124.289V15.075H124.939Z" fill="#F7C54B"/>
</svg>
